<svg width="16" height="16" viewBox="0 0 16 16" fill="none" xmlns="http://www.w3.org/2000/svg">
<g clip-path="url(#clip0_44_3700)">
<path d="M15.844 8.18427C15.844 7.64046 15.8 7.0937 15.7059 6.5587H8.16003V9.63935H12.4812C12.3019 10.6329 11.7257 11.5119 10.8821 12.0704V14.0693H13.4601C14.9739 12.6759 15.844 10.6182 15.844 8.18427Z" fill="#0B4469"/>
<path d="M8.15999 16.0005C10.3176 16.0005 12.1372 15.2921 13.4629 14.0693L10.885 12.0704C10.1677 12.5583 9.24174 12.8346 8.16293 12.8346C6.07584 12.8346 4.30623 11.4266 3.67128 9.53352H1.01099V11.5942C2.36906 14.2956 5.13518 16.0005 8.15999 16.0005Z" fill="#34A853"/>
<path d="M3.66839 9.53354C3.33328 8.53997 3.33328 7.4641 3.66839 6.47053V4.4099H1.01104C-0.123633 6.67042 -0.123633 9.33365 1.01104 11.5942L3.66839 9.53354Z" fill="#F5BE00"/>
<path d="M8.15999 3.16644C9.30053 3.1488 10.4029 3.57798 11.2289 4.36578L13.5129 2.08174C12.0667 0.72367 10.1471 -0.0229773 8.15999 0.000539111C5.13518 0.000539111 2.36906 1.70548 1.01099 4.40987L3.66834 6.4705C4.30035 4.57449 6.0729 3.16644 8.15999 3.16644Z" fill="#EF5A56"/>
</g>
<defs>
<clipPath id="clip0_44_3700">
<rect width="16" height="16" fill="white"/>
</clipPath>
</defs>
</svg>
